# AST/ASF file generated using VICON BodyLanguage
# -----------------------------------------------
:version 1.10
:name VICON
:units
  mass 1.0
  length 0.45
  angle deg
:documentation
   .ast/.asf automatically generated from VICON data using
   VICON BodyBuilder and BodyLanguage model FoxedUp or BRILLIANT.MOD
:root
   order TX TY TZ RX RY RZ
   axis XYZ
   position 0 0 0  
   orientation 0 0 0 
:bonedata
  begin
     id 1 
     name lhipjoint
     direction 0.575328 -0.747301 0.332475 
     length 2.40933 
     axis 0 0 0  XYZ
  end
  begin
     id 2 
     name lfemur
     direction 0.34202 -0.939693 0  
     length 7.31453  
     axis 0 0 20  XYZ
    dof rx ry rz
    limits (-160.0 20.0)
           (-70.0 70.0)
           (-60.0 70.0)
  end
  begin
     id 3 
     name ltibia
     direction 0.34202 -0.939693 0   
     length 7.82185   
     axis 0 0 20   XYZ
    dof rx
    limits (-10.0 170.0)
  end
  begin
     id 4 
     name lfoot
     direction 0.0795993 -0.218697 0.972541   
     length 2.19173   
     axis -90 7.62852e-016 20   XYZ
    dof rx rz
    limits (-45.0 90.0)
           (-70.0 20.0)
  end
  begin
     id 5 
     name ltoes
     direction 1.53537e-011 -4.21894e-011 1   
     length 1.10023   
     axis -90 7.62852e-016 20   XYZ
    dof rx
    limits (-90.0 20.0)
  end
  begin
     id 6 
     name rhipjoint
     direction -0.513884 -0.783789 0.348708   
     length 2.29716  
     axis 0 0 0  XYZ 
  end
  begin
     id 7 
     name rfemur
     direction -0.34202 -0.939693 0   
     length 7.59573   
     axis 0 0 -20   XYZ
    dof rx ry rz
    limits (-160.0 20.0)
           (-70.0 70.0)
           (-70.0 60.0)
  end
  begin
     id 8 
     name rtibia
     direction -0.34202 -0.939693 0   
     length 7.66402   
     axis 0 0 -20   XYZ
    dof rx
    limits (-10.0 170.0)
 end
 begin
     id 9 
     name rfoot
     direction -0.137793 -0.378584 0.915253   
     length 2.27056  
     axis -90 -7.62852e-016 -20   XYZ
    dof rx rz
    limits (-45.0 90.0)
           (-20.0 70.0)
  end
  begin
     id 10 
     name rtoes
     direction -1.53493e-011 -4.22159e-011 1   
     length 1.11766   
     axis -90 -7.62852e-016 -20   XYZ
    dof rx
    limits (-90.0 20.0)
  end
  begin
     id 11 
     name lowerback
     direction -0.00732775 0.998356 -0.05685   
     length 2.16513   
     axis 0 0 0   XYZ
    dof rx ry rz
    limits (-20.0 45.0)
           (-30.0 30.0)
           (-30.0 30.0)
  end
  begin
     id 12 
     name upperback
     direction 0.0218081 0.999627 -0.0164647   
     length 2.16755   
     axis 0 0 0   XYZ
    dof rx ry rz
    limits (-20.0 45.0)
           (-30.0 30.0)
           (-30.0 30.0)
  end
  begin
     id 13 
     name thorax
     direction 0.02365 0.999661 0.0108914   
     length 2.16932   
     axis 0 0 0   XYZ
    dof rx ry rz
    limits (-20.0 45.0)
           (-30.0 30.0)
           (-30.0 30.0)
  end
  begin
     id 14 
     name lowerneck
     direction -0.0523929 0.978385 0.200044   
     length 1.63877   
     axis 0 0 0   XYZ
    dof rx ry rz
    limits (-20.0 45.0)
           (-30.0 30.0)
           (-30.0 30.0)
  end
  begin
     id 15 
     name upperneck
     direction 0.0448674 0.981321 -0.187074   
     length 1.69014   
     axis 0 0 0   XYZ
    dof rx ry rz
    limits (-20.0 45.0)
           (-30.0 30.0)
           (-30.0 30.0)
  end
  begin
     id 16
     name head
     direction 0.0199089 0.996118 -0.0857429  
     length 1.70094  
     axis 0 0 0   XYZ
    dof rx ry rz
    limits (-20.0 45.0)
           (-30.0 30.0)
           (-30.0 30.0)
  end
  begin
     id 17 
     name lclavicle
     direction 0.940366 0.30191 -0.156722  
     length 3.37521  
     axis 0 0 0   XYZ
    dof ry rz
    limits (-20.0 10.0)
           (0.0 20.0)
  end
  begin
     id 18 
     name lhumerus
     direction 1 -4.4897e-011 -1.7911e-027   
     length 5.25287   
     axis 180 -30 -90   XYZ
    dof rx ry rz
    limits (-60.0 90.0)
           (-90.0 90.0)
           (-90.0 90.0)
  end
  begin
     id 19
     name lradius
     direction 1 -4.48951e-011 1.04424e-027   
     length 3.51014   
     axis 180 -30 -90   XYZ
    dof rx
    limits (-10.0 170.0)
  end
  begin
     id 20
     name lwrist
     direction 1 -4.48997e-011 -9.5942e-028   
     length 1.75507   
     axis 8.48502e-016 90 90   XYZ
    dof ry
    limits (-180.0 0.0)
 end
  begin
     id 21 
     name lhand
     direction 1 -4.48831e-011 -1.90777e-027   
     length 0.706179   
     axis 1.22306e-015 90 90   XYZ
    dof rx rz
    limits (-90.0 90.0)
           (-45.0 45.0)
  end
  begin
     id 22 
     name lfingers
     direction 1 -4.49108e-011 -3.85244e-027   
     length 0.569339   
     axis 2.44611e-015 90 90   XYZ
    dof rx
    limits (0.0 90.0)
  end
  begin
     id 23
     name lthumb
     direction 0.707107 -6.34953e-011 0.707107   
     length 0.817461   
     axis -90 45 -1.62303e-014   XYZ
    dof rx rz
    limits (-45.0 45.0)
           (-45.0 45.0)
  end
  begin
     id 24 
     name rclavicle
     direction -0.905329 0.382405 -0.184787   
     length 3.30787  
     axis 0 0 0   XYZ 
    dof ry rz
    limits (-10.0 20.0)
           (-20.0 0.0)
  end
  begin
     id 25 
     name rhumerus
     direction -1 -4.48953e-011 -9.15316e-029  
     length 5.28721   
     axis 180 30 90   XYZ
    dof rx ry rz
    limits (-90.0 60.0)
           (-90.0 90.0)
           (-90.0 90.0)
  end
  begin
     id 26 
     name rradius
     direction -1 -4.48987e-011 9.37824e-028   
     length 3.50544   
     axis 180 30 90   XYZ
    dof rx
    limits (-10.0 170.0)
  end
  begin
     id 27 
     name rwrist
     direction -1 -4.48967e-011 -9.58414e-028   
     length 1.75272   
     axis 8.48502e-016 -90 -90   XYZ
    dof ry
    limits (-180.0 0.0)
  end
  begin
     id 28
     name rhand
     direction -1 -4.48904e-011 -1.91266e-027   
     length 0.884996   
     axis 1.22306e-015 -90 -90   XYZ
    dof rx rz
    limits (-90.0 90.0)
           (-45.0 45.0)
  end
  begin
     id 29
     name rfingers
     direction -1 -4.4909e-011 -3.85015e-027   
     length 0.713507   
     axis 2.44611e-015 -90 -90   XYZ
    dof rx
    limits (0.0 90.0)
  end
  begin
     id 30
     name rthumb
     direction -0.707107 -6.34853e-011 0.707107   
     length 1.02446   
     axis -90 -45 1.62303e-014   XYZ
    dof rx rz
    limits (-45.0 45.0)
           (-45.0 45.0)
  end
:hierarchy
  begin
    root lhipjoint rhipjoint lowerback
    lhipjoint lfemur
    lfemur ltibia
    ltibia lfoot
    lfoot ltoes
    rhipjoint rfemur
    rfemur rtibia
    rtibia rfoot
    rfoot rtoes
    lowerback upperback
    upperback thorax
    thorax lowerneck lclavicle rclavicle
    lowerneck upperneck
    upperneck head
    lclavicle lhumerus
    lhumerus lradius
    lradius lwrist
    lwrist lhand lthumb
    lhand lfingers
    rclavicle rhumerus
    rhumerus rradius
    rradius rwrist
    rwrist rhand rthumb
    rhand rfingers
  end

#!OML:ASF F:\twosubjects\two\Thursday\Session 1\justin.ASF
:FULLY-SPECIFIED
:DEGREES
29
root 10.516 17.7908 -12.2089 -1.78355 -53.3039 6.40208
lowerback -3.31514 -0.1087 -5.75955
upperback 0.164406 0.07618 0.189515
thorax 2.02355 -0.0248106 3.43153
lowerneck -20.8722 -2.16402 -8.366
upperneck 23.5546 -1.97106 5.91099
head 11.2492 -0.93781 3.26035
rclavicle 5.88775e-014 -6.16232e-015
rhumerus -34.148 26.7239 -97.1641
rradius 100.448
rwrist -0.866848
rhand -31.9966 30.7985
rfingers 7.12502
rthumb -5.24548 0.883465
lclavicle 5.88775e-014 -6.16232e-015
lhumerus -21.9714 -35.8341 92.2262
lradius 90.9044
lwrist -11.6281
lhand -20.0835 37.9687
lfingers 7.12502
lthumb 6.25925 67.8562
rfemur -5.96408 -1.40314 6.50954
rtibia 23.6707
rfoot -16.4841 -14.9521
rtoes -18.0423
lfemur -4.18136 9.49689 -25.7544
ltibia 16.246
lfoot -12.7998 3.76561
ltoes -6.72752
30
root 10.5156 17.7926 -12.2032 -1.15762 -53.1442 5.99222
lowerback -3.50715 -0.204268 -5.3768
upperback -0.124678 -0.0649304 0.276239
thorax 1.84632 -0.0809937 3.29902
lowerneck -20.6596 -2.11874 -8.37567
upperneck 23.6504 -1.86561 5.68314
head 11.2338 -0.925451 3.19453
rclavicle 8.00729e-014 1.98785e-015
rhumerus -34.6061 26.5438 -97.026
rradius 100.563
rwrist -1.12767
rhand -31.8158 30.4583
rfingers 7.12502
rthumb -5.07083 0.538993
lclavicle 8.00729e-014 1.98785e-015
lhumerus -20.859 -35.398 91.4682
lradius 91.4415
lwrist -12.4067
lhand -19.1889 37.678
lfingers 7.12502
lthumb 7.12282 67.5382
rfemur -6.14851 -1.5903 6.7546
rtibia 23.5658
rfoot -16.5563 -14.9486
rtoes -17.5607
lfemur -4.66342 9.41627 -25.5785
ltibia 16.5495
lfoot -12.812 3.77288
ltoes -7.5895
31
root 10.5154 17.7891 -12.197 -0.64035 -53.0521 5.56542
lowerback -3.63178 -0.243064 -5.07097
upperback -0.302472 -0.127968 0.335079
thorax 1.73812 -0.103964 3.18465
lowerneck -20.8811 -2.04432 -7.9918
upperneck 23.9923 -1.78531 5.33009
head 11.3918 -0.902465 3.019
rclavicle 1.15357e-014 -8.34896e-015
rhumerus -34.8698 26.2944 -96.8919
rradius 100.586
rwrist -1.30859
rhand -31.8063 30.469
rfingers 7.12502
rthumb -5.06171 0.54944
lclavicle 1.15357e-014 -8.34896e-015
lhumerus -19.4442 -35.5935 90.3393
lradius 92.0439
lwrist -12.2007
lhand -19.4409 38.4268
lfingers 7.12502
lthumb 6.87955 68.295
rfemur -6.24279 -1.76667 7.01678
rtibia 23.4426
rfoot -16.4061 -14.957
rtoes -18.1023
lfemur -5.0252 9.36133 -25.3557
ltibia 16.8854
lfoot -12.8895 3.823
ltoes -7.69445
32
root 10.5172 17.7845 -12.1934 -0.40837 -52.9131 5.16193
lowerback -3.62394 -0.292078 -4.81366
upperback -0.244637 -0.20325 0.393112
thorax 1.7996 -0.142192 3.09598
lowerneck -21.3412 -1.95215 -7.74652
upperneck 24.3188 -1.69021 5.26039
head 11.5942 -0.84528 2.97584
rclavicle -6.15239e-014 1.78906e-015
rhumerus -34.6612 25.9866 -96.7179
rradius 100.42
rwrist -1.26472
rhand -32.0307 30.2271
rfingers 7.12502
rthumb -5.27836 0.312842
lclavicle -6.15239e-014 1.78906e-015
lhumerus -17.674 -35.8953 88.9528
lradius 92.6621
lwrist -11.7249
lhand -20.5043 39.3233
lfingers 7.12502
lthumb 5.85296 69.2225
rfemur -6.05735 -1.8469 7.2888
rtibia 23.3538
rfoot -16.2615 -15.0494
rtoes -18.5195
lfemur -5.04571 9.27927 -25.0876
ltibia 17.1257
lfoot -13.0033 3.88762
ltoes -7.72531
33
root 10.5212 17.7815 -12.1884 -0.592182 -52.7654 5.19784
lowerback -3.75613 -0.257598 -4.56847
upperback -0.00782215 -0.151297 0.235808
thorax 2.11217 -0.124828 2.79803
lowerneck -21.6533 -1.99506 -7.43825
upperneck 24.2797 -1.75075 4.99197
head 11.6393 -0.872712 2.81371
rclavicle -5.42806e-014 -1.03368e-014
rhumerus -33.9821 25.1304 -96.4997
rradius 100.02
rwrist -1.03783
rhand -31.6474 30.2775
rfingers 7.12502
rthumb -4.90826 0.354369
lclavicle -5.42806e-014 -1.03368e-014
lhumerus -15.5015 -36.2363 87.3276
lradius 93.1546
lwrist -11.6562
lhand -20.9473 39.5709
lfingers 7.12502
lthumb 5.42521 69.4815
rfemur -5.82461 -1.95812 7.25246
rtibia 23.2994
rfoot -16.1569 -15.0896
rtoes -18.8181
lfemur -4.93715 9.01219 -25.1051
ltibia 17.2716
lfoot -13.2043 3.90411
ltoes -6.65093
34
root 10.5211 17.778 -12.1873 -1.09149 -52.5973 5.74982
lowerback -3.5267 -0.386006 -5.16802
upperback -0.199184 -0.318128 0.380054
thorax 1.80427 -0.20333 3.27608
lowerneck -21.3802 -1.87586 -7.43337
upperneck 24.2517 -1.48006 4.55234
head 11.5533 -0.81132 2.68959
rclavicle -7.15004e-015 -3.97569e-015
rhumerus -34.2093 24.8704 -96.2057
rradius 99.6944
rwrist -0.748998
rhand -31.3004 30.6208
rfingers 7.12502
rthumb -4.57318 0.690156
lclavicle -7.15004e-015 -3.97569e-015
lhumerus -14.2182 -35.757 86.6202
lradius 93.5116
lwrist -12.0088
lhand -21.3607 39.4142
lfingers 7.12502
lthumb 5.02605 69.3346
rfemur -5.70152 -2.19582 6.83818
rtibia 23.2694
rfoot -16.1583 -15.0217
rtoes -19.1034
lfemur -4.91426 8.76294 -25.4684
ltibia 17.3725
lfoot -13.3498 3.81336
ltoes -5.45246
35
root 10.5161 17.7809 -12.1986 -0.831262 -52.3596 5.50775
lowerback -3.58357 -0.495821 -5.36464
upperback -0.276321 -0.459838 0.635776
thorax 1.77386 -0.274135 3.64427
lowerneck -21.4371 -1.79495 -7.76494
upperneck 24.4331 -1.29022 4.69101
head 11.6238 -0.742394 2.8317
rclavicle -1.80149e-015 6.36111e-015
rhumerus -34.236 24.652 -95.7673
rradius 99.5216
rwrist -0.581247
rhand -30.9294 30.6208
rfingers 7.12502
rthumb -4.21501 0.682803
lclavicle -1.80149e-015 6.36111e-015
lhumerus -12.6158 -35.4006 85.6929
lradius 93.8186
lwrist -12.4395
lhand -22.1334 39.198
lfingers 7.12502
lthumb 4.27994 69.1347
rfemur -5.70026 -2.16787 7.0489
rtibia 23.2602
rfoot -16.2925 -15.2419
rtoes -18.573
lfemur -5.04722 8.68586 -25.2679
ltibia 17.4201
lfoot -13.2125 3.62652
ltoes -5.60241
36
root 10.5116 17.7828 -12.2091 -0.455104 -52.1352 5.00782
lowerback -3.40714 -0.564467 -5.32074
upperback -0.43476 -0.571115 0.85991
thorax 1.52461 -0.319914 3.84779
lowerneck -21.5261 -1.7614 -7.85857
upperneck 24.7388 -1.20162 4.65331
head 11.7528 -0.722654 2.85428
rclavicle -6.01634e-014 -3.57812e-015
rhumerus -34.4797 24.3835 -95.5061
rradius 99.4412
rwrist -0.581277
rhand -30.3848 30.4362
rfingers 7.12502
rthumb -3.68905 0.488332
lclavicle -6.01634e-014 -3.57812e-015
lhumerus -11.1905 -35.303 84.6752
lradius 94.3327
lwrist -12.6442
lhand -23.1615 40.0035
lfingers 7.12502
lthumb 3.28715 69.9579
rfemur -5.61158 -2.01374 7.47113
rtibia 23.254
rfoot -16.3571 -15.5873
rtoes -18.2699
lfemur -5.07717 8.72232 -24.8761
ltibia 17.4573
lfoot -13.3383 3.45788
ltoes -7.45551
37
root 10.5089 17.7827 -12.2082 -0.664164 -52.0299 5.15406
lowerback -3.26293 -0.576162 -5.37824
upperback -0.52644 -0.594989 0.835481
thorax 1.35194 -0.325392 3.85505
lowerneck -21.2079 -1.79501 -7.71471
upperneck 24.422 -1.22819 4.33903
head 11.5692 -0.758663 2.69952
rclavicle 4.79754e-014 2.78299e-015
rhumerus -34.7182 24.0411 -95.3781
rradius 99.3279
rwrist -0.409404
rhand -30.3864 30.3356
rfingers 7.12502
rthumb -3.69058 0.387777
lclavicle 4.79754e-014 2.78299e-015
lhumerus -9.44708 -35.3377 83.3571
lradius 94.9414
lwrist -12.617
lhand -23.5077 41.2393
lfingers 7.12502
lthumb 2.95278 71.1986
rfemur -5.44934 -2.00929 7.37084
rtibia 23.2307
rfoot -16.3755 -15.6147
rtoes -18.1901
lfemur -5.00939 8.7633 -24.9631
ltibia 17.5243
lfoot -13.6284 3.44186
ltoes -9.19766
38
root 10.5058 17.7853 -12.2053 -0.819114 -51.9716 5.37753
lowerback -3.38325 -0.612989 -5.46572
upperback -0.602116 -0.635998 0.816227
thorax 1.34636 -0.344633 3.88198
lowerneck -20.9153 -1.69505 -7.91069
upperneck 24.2109 -1.08922 4.51365
head 11.4238 -0.690292 2.81433
rclavicle 1.14283e-013 -7.15625e-015
rhumerus -34.8656 23.8286 -95.211
rradius 99.1801
rwrist -0.124014
rhand -30.3487 30.4611
rfingers 7.12502
rthumb -3.65422 0.512694
lclavicle 1.14283e-013 -7.15625e-015
lhumerus -7.70191 -35.1704 82.1751
lradius 95.5155
lwrist -12.8211
lhand -22.5969 41.0992
lfingers 7.12502
lthumb 3.83237 71.0445
rfemur -5.42869 -2.04951 7.20453
rtibia 23.2245
rfoot -16.3793 -15.5468
rtoes -17.6253
lfemur -5.05878 8.73128 -25.1258
ltibia 17.5737
lfoot -13.4704 3.42932
ltoes -8.26626
39
root 10.5017 17.785 -12.2032 -0.76781 -51.8993 5.35454
lowerback -3.4939 -0.661464 -5.4533
upperback -0.696536 -0.69809 0.86624
thorax 1.31808 -0.37303 3.92347
lowerneck -20.8769 -1.52999 -8.43515
upperneck 24.3491 -0.864903 5.15115
head 11.4554 -0.55961 3.17931
rclavicle -3.10384e-014 -8.74653e-015
rhumerus -35.0087 23.7355 -95.0102
rradius 99.028
rwrist 0.101093
rhand -30.2268 30.6429
rfingers 7.12502
rthumb -3.5365 0.692541
lclavicle -3.10384e-014 -8.74653e-015
lhumerus -6.15538 -34.8537 81.1385
lradius 96.0349
lwrist -13.1057
lhand -22.3046 40.8509
lfingers 7.12502
lthumb 4.11465 70.7909
rfemur -5.4606 -2.16022 7.22708
rtibia 23.2799
rfoot -16.3304 -15.5616
rtoes -17.7272
lfemur -5.07274 8.78141 -25.1094
ltibia 17.5621
lfoot -13.311 3.28668
ltoes -7.23045
40
root 10.4965 17.7791 -12.2005 -0.799318 -51.8536 5.35355
lowerback -3.53953 -0.653018 -5.4296
upperback -0.718284 -0.685689 0.864259
thorax 1.31956 -0.366361 3.90837
lowerneck -20.8829 -1.52087 -8.59831
upperneck 24.2456 -0.827981 5.28164
head 11.4155 -0.538514 3.25907
rclavicle 1.83037e-014 5.1684e-015
rhumerus -35.0892 23.5087 -94.8223
rradius 98.9859
rwrist 0.245996
rhand -30.3612 30.6431
rfingers 7.12502
rthumb -3.66629 0.694928
lclavicle 1.83037e-014 5.1684e-015
lhumerus -4.32746 -34.5982 79.8196
lradius 96.4902
lwrist -13.1063
lhand -22.7276 40.8582
lfingers 7.12502
lthumb 3.70615 70.8057
rfemur -5.43316 -2.27641 7.22804
rtibia 23.3694
rfoot -16.3668 -15.5844
rtoes -18.5326
lfemur -4.98054 8.90226 -25.0989
ltibia 17.5126
lfoot -13.3276 3.14287
ltoes -7.56316
